<?xml version="1.0" encoding="UTF-8"?>
<svg xmlns="http://www.w3.org/2000/svg" version="2.0">

<title>Perfil de Altimetría del Circuito</title>
<desc>Representación del perfil de altimetría basado en datos XML.</desc>

<polyline points= 
			"
			 185,317 
			 204,342 
			 226,257 
			 314,305 
			 352,252 
			 404,249 
			 435,258 
			 467,298 
			 511,315 
			 537,314 
			 551,290 
			 578,245 
			 619,230 
			 701,221 
			 737,224 
			 785,200 
			 818,230 
			 835,255 
			 849,255 
			 885,257 
			 955,259 
			 1090,317 
			"
			style="fill:white;stroke:red;stroke-width:4" />
<text x="185" y="351.85" style="writing-mode: tb; glyph-orientation-vertical: 0;">
	Recta salida
</text>
<text x="204" y="351.85" style="writing-mode: tb; glyph-orientation-vertical: 0;">
	Curva 1: ELF
</text>
<text x="226" y="351.85" style="writing-mode: tb; glyph-orientation-vertical: 0;">
	Curva 2: Sin nombre
</text>
<text x="314" y="351.85" style="writing-mode: tb; glyph-orientation-vertical: 0;">
	Curva 3: Curvón o Renault
</text>
<text x="352" y="351.85" style="writing-mode: tb; glyph-orientation-vertical: 0;">
	Recta entre Curva 3 y Curva 4
</text>
<text x="404" y="351.85" style="writing-mode: tb; glyph-orientation-vertical: 0;">
	Curva 4: Repsol
</text>
<text x="435" y="351.85" style="writing-mode: tb; glyph-orientation-vertical: 0;">
	Recta entre Curva 4 y Curva 5
</text>
<text x="467" y="351.85" style="writing-mode: tb; glyph-orientation-vertical: 0;">
	Curva 5: Seat
</text>
<text x="511" y="351.85" style="writing-mode: tb; glyph-orientation-vertical: 0;">
	Curva 6: Sin nombre
</text>
<text x="537" y="351.85" style="writing-mode: tb; glyph-orientation-vertical: 0;">
	Curva 7: TV3
</text>
<text x="551" y="351.85" style="writing-mode: tb; glyph-orientation-vertical: 0;">
	Curva 8: La Moreneta
</text>
<text x="578" y="351.85" style="writing-mode: tb; glyph-orientation-vertical: 0;">
	Recta entre Curva 8 y Curva 9
</text>
<text x="619" y="351.85" style="writing-mode: tb; glyph-orientation-vertical: 0;">
	Curva 9: Campsa
</text>
<text x="701" y="351.85" style="writing-mode: tb; glyph-orientation-vertical: 0;">
	Recta entre Curva 9 y Curva 10
</text>
<text x="737" y="351.85" style="writing-mode: tb; glyph-orientation-vertical: 0;">
	Curva 10: La Caixa
</text>
<text x="785" y="351.85" style="writing-mode: tb; glyph-orientation-vertical: 0;">
	Curva 12: Sin nombre
</text>
<text x="818" y="351.85" style="writing-mode: tb; glyph-orientation-vertical: 0;">
	Curva 13: Europcar
</text>
<text x="835" y="351.85" style="writing-mode: tb; glyph-orientation-vertical: 0;">
	Curva 14
</text>
<text x="849" y="351.85" style="writing-mode: tb; glyph-orientation-vertical: 0;">
	Curva 15
</text>
<text x="885" y="351.85" style="writing-mode: tb; glyph-orientation-vertical: 0;">
	Curva 16: Catalunya
</text>
<text x="955" y="351.85" style="writing-mode: tb; glyph-orientation-vertical: 0;">
	Recta entre Curva 16 y la línea de salida
</text>
<text x="1090" y="351.85" style="writing-mode: tb; glyph-orientation-vertical: 0;">
	Recta salida
</text>
</svg>